<svg xmlns="http://www.w3.org/2000/svg" viewBox="0 0 100 100" role="img" aria-label="Majic logo">
  <defs>
    <linearGradient id="bg" x1="10%" y1="8%" x2="88%" y2="92%">
      <stop offset="0%" stop-color="#0f1324" />
      <stop offset="100%" stop-color="#090c18" />
    </linearGradient>
    <linearGradient id="accent" x1="12%" y1="12%" x2="88%" y2="88%">
      <stop offset="0%" stop-color="#f0545d" />
      <stop offset="55%" stop-color="#d70914" />
      <stop offset="100%" stop-color="#ef7a53" />
    </linearGradient>
    <linearGradient id="film" x1="0%" y1="0%" x2="0%" y2="100%">
      <stop offset="0%" stop-color="#232944" />
      <stop offset="100%" stop-color="#171d33" />
    </linearGradient>
  </defs>

  <rect x="6" y="6" width="88" height="88" rx="20" fill="url(#bg)" stroke="#252d4b" stroke-width="1.4" />
  <rect x="14" y="20" width="72" height="61" rx="12" fill="url(#film)" stroke="#2b3457" stroke-width="1.8" />

  <rect x="19.5" y="27" width="4.6" height="4.6" rx="1.1" fill="#b4bddf" />
  <rect x="19.5" y="35.2" width="4.6" height="4.6" rx="1.1" fill="#b4bddf" />
  <rect x="19.5" y="43.4" width="4.6" height="4.6" rx="1.1" fill="#b4bddf" />
  <rect x="19.5" y="51.6" width="4.6" height="4.6" rx="1.1" fill="#b4bddf" />
  <rect x="19.5" y="59.8" width="4.6" height="4.6" rx="1.1" fill="#b4bddf" />
  <rect x="19.5" y="68" width="4.6" height="4.6" rx="1.1" fill="#b4bddf" />

  <rect x="75.9" y="27" width="4.6" height="4.6" rx="1.1" fill="#b4bddf" />
  <rect x="75.9" y="35.2" width="4.6" height="4.6" rx="1.1" fill="#b4bddf" />
  <rect x="75.9" y="43.4" width="4.6" height="4.6" rx="1.1" fill="#b4bddf" />
  <rect x="75.9" y="51.6" width="4.6" height="4.6" rx="1.1" fill="#b4bddf" />
  <rect x="75.9" y="59.8" width="4.6" height="4.6" rx="1.1" fill="#b4bddf" />
  <rect x="75.9" y="68" width="4.6" height="4.6" rx="1.1" fill="#b4bddf" />

  <g>
    <rect x="30" y="45" width="40" height="28" rx="7" fill="url(#accent)" />
    <rect x="33.2" y="51.2" width="33.6" height="4.2" rx="2.1" fill="#0b0f1d" opacity="0.9" />
    <rect x="33.2" y="59.1" width="27.8" height="3.4" rx="1.7" fill="#0b0f1d" opacity="0.9" />
    <path d="M38 68 V55.1 L44.5 61.6 L51 55.1 V68" fill="none" stroke="#0b0f1d" stroke-width="3.1" stroke-linecap="round" stroke-linejoin="round" opacity="0.92" />
  </g>

  <rect x="29.4" y="41.7" width="3.8" height="8.3" rx="1.9" fill="url(#accent)" />
  <g transform="rotate(-27 49 38)">
    <rect x="29" y="34" width="42" height="9.6" rx="3.2" fill="url(#accent)" />
    <polygon points="32,35.4 41,35.4 34.8,42.2 29.8,42.2" fill="#0b0f1d" opacity="0.9" />
    <polygon points="45,35.4 54,35.4 47.8,42.2 42.8,42.2" fill="#0b0f1d" opacity="0.9" />
    <polygon points="58,35.4 67,35.4 60.8,42.2 55.8,42.2" fill="#0b0f1d" opacity="0.9" />
  </g>

  <path d="M74.8 14.2 L76.7 18.6 L81.3 20.5 L76.7 22.3 L74.8 26.8 L73 22.3 L68.5 20.5 L73 18.6 Z" fill="#ffd77a" opacity="0.72" />
</svg>
